<?xml version="1.0" standalone="no"?>
<!DOCTYPE svg PUBLIC "-//W3C//DTD SVG 20010904//EN"
 "http://www.w3.org/TR/2001/REC-SVG-20010904/DTD/svg10.dtd">
<svg version="1.0" xmlns="http://www.w3.org/2000/svg"
 width="695.000000pt" height="695.000000pt" viewBox="0 0 695.000000 695.000000"
 preserveAspectRatio="xMidYMid meet">
<metadata>
Created by potrace 1.14, written by Peter Selinger 2001-2017
</metadata>
<g transform="translate(0.000000,695.000000) scale(0.100000,-0.100000)"
fill="#000000" stroke="none">
<path d="M1518 6894 c-2 -1 -25 -5 -53 -8 -291 -38 -573 -250 -702 -526 -30
-64 -59 -149 -69 -200 -3 -14 -8 -36 -11 -50 -3 -14 -7 -1190 -8 -2614 -2
-2740 -3 -2648 42 -2791 69 -220 233 -421 435 -533 56 -31 173 -80 205 -85 15
-3 46 -9 68 -15 22 -5 47 -11 55 -12 8 -1 1028 -3 2266 -4 1856 -2 2260 0
2303 11 213 54 298 326 155 496 -35 42 -99 84 -149 99 -30 9 -604 12 -2270 13
-2351 1 -2263 -1 -2335 43 -68 42 -148 154 -149 208 0 11 -2 33 -4 50 -5 44
18 126 47 173 36 57 73 89 136 120 l55 26 2228 1 c1225 1 2244 5 2265 10 20 4
42 8 49 10 22 4 101 63 128 96 16 18 38 53 49 78 l21 45 1 2255 c0 1240 -3
2275 -7 2300 -15 86 -20 105 -41 170 -57 174 -163 318 -342 465 -66 54 -247
130 -386 161 -30 6 -3975 15 -3982 8z m3931 -639 c96 -35 177 -128 197 -225 8
-41 12 -4088 3 -4101 -3 -5 -868 -9 -2075 -10 -2023 -1 -2071 -1 -2159 -20
-49 -11 -97 -21 -105 -22 -12 -2 -14 264 -14 2068 0 2014 0 2071 19 2122 35
98 117 170 221 197 28 8 637 11 1950 11 1874 -1 1910 -1 1963 -20z"/>
<path d="M3387 6163 c-1 0 -36 -4 -77 -7 -116 -10 -139 -13 -275 -40 -68 -13
-213 -57 -290 -87 -16 -7 -35 -13 -42 -15 -24 -5 -228 -109 -306 -156 -163
-100 -359 -265 -493 -418 -47 -53 -151 -197 -181 -249 -15 -25 -30 -48 -33
-51 -3 -3 -16 -27 -30 -55 -14 -27 -28 -51 -32 -53 -5 -2 -8 -8 -8 -14 0 -6
-13 -39 -29 -73 -29 -62 -97 -246 -105 -288 -12 -54 -15 -68 -19 -75 -3 -4 -8
-23 -11 -42 -15 -96 -18 -114 -21 -133 -23 -119 -24 -439 -2 -577 3 -14 8 -45
11 -70 28 -181 119 -435 221 -619 42 -77 127 -208 160 -250 266 -330 538 -536
895 -676 90 -35 122 -46 130 -43 3 1 15 -4 28 -11 12 -7 62 -21 110 -32 48
-11 96 -22 107 -24 11 -3 38 -7 60 -10 22 -2 52 -7 66 -10 127 -25 459 -17
619 16 25 5 54 11 65 13 71 11 104 20 240 65 133 43 343 138 373 167 7 8 18
14 23 14 9 0 199 126 209 139 3 3 23 19 45 36 40 29 241 227 280 275 51 63
115 151 160 220 50 76 125 220 125 238 0 5 7 15 15 22 8 7 15 20 15 29 0 9 6
28 14 42 28 54 94 274 110 364 3 17 7 41 10 55 28 137 28 541 0 671 -2 13 -7
35 -9 49 -2 14 -7 36 -10 50 -4 14 -8 33 -9 42 -1 10 -5 21 -9 24 -4 4 -7 16
-7 27 0 19 -49 170 -77 237 -29 69 -115 240 -145 287 -60 93 -83 128 -88 133
-3 3 -17 21 -30 40 -62 88 -229 265 -315 332 -16 13 -37 30 -46 38 -37 35
-116 90 -128 90 -5 0 -11 4 -13 9 -9 26 -289 172 -428 224 -80 30 -250 79
-316 91 -136 25 -251 37 -392 39 -63 1 -114 1 -115 0z m-249 -260 c-50 -41
-218 -212 -263 -268 -22 -27 -43 -51 -47 -53 -5 -2 -8 -8 -8 -14 0 -5 -7 -16
-16 -25 -19 -20 -114 -160 -114 -169 0 -4 -6 -15 -14 -23 -8 -9 -39 -64 -68
-121 l-54 -106 -312 0 c-172 -1 -312 1 -312 3 0 23 140 193 241 294 235 232
526 396 850 479 147 37 160 38 117 3z m812 -5 c116 -30 216 -66 328 -118 106
-51 225 -118 230 -132 2 -4 9 -8 16 -8 7 0 21 -8 32 -17 10 -10 46 -38 79 -63
70 -52 245 -224 301 -295 21 -27 46 -57 54 -67 8 -9 23 -30 32 -46 l17 -29
-314 1 -313 0 -50 95 c-146 279 -284 456 -532 681 l-35 31 40 -6 c22 -4 74
-16 115 -27z m-572 -421 l1 -353 -294 0 c-342 0 -315 -16 -227 129 111 183
275 377 417 494 71 59 100 82 101 83 1 0 2 -159 2 -353z m282 294 c133 -104
269 -252 382 -416 58 -84 128 -206 128 -221 0 -6 -118 -9 -292 -9 l-293 0 0
330 c0 328 2 385 14 368 3 -5 31 -28 61 -52z m-1194 -874 c-4 -12 -9 -29 -12
-37 -19 -59 -75 -289 -79 -327 -4 -27 -8 -59 -11 -73 -5 -32 -21 -181 -23
-227 -1 -10 -80 -13 -361 -13 l-360 0 4 33 c3 17 7 55 10 82 8 66 24 152 41
225 1 3 5 21 9 40 5 19 13 41 18 48 6 6 8 12 5 12 -10 0 66 199 90 237 14 21
17 21 345 21 l330 0 -6 -21z m912 -328 l0 -349 -415 0 -414 0 5 83 c3 45 8 96
11 112 3 17 8 46 11 65 19 112 41 211 54 245 6 17 11 32 11 35 -2 10 42 135
51 146 6 9 105 12 347 12 l339 1 0 -350z m903 323 c5 -15 12 -34 16 -42 3 -8
7 -19 8 -25 2 -5 12 -42 24 -81 35 -118 68 -288 77 -399 3 -33 7 -75 9 -93 l4
-32 -417 2 -416 3 -1 335 c0 184 1 340 3 347 3 9 89 12 343 12 l340 0 10 -27z
m905 -30 c67 -145 133 -397 149 -569 l7 -73 -361 0 -361 0 -1 48 c0 26 -2 54
-3 62 -2 8 -6 44 -10 80 -13 139 -71 394 -111 492 -6 15 20 16 329 16 l335 0
27 -56z m-2851 -854 c4 -3 9 -35 11 -70 2 -34 7 -81 10 -103 3 -22 7 -56 10
-75 11 -88 55 -281 85 -374 10 -32 17 -61 15 -65 -7 -11 -654 -7 -664 4 -5 6
-17 30 -27 55 -9 25 -22 56 -28 70 -6 14 -11 27 -12 30 -1 3 -13 43 -28 89
-28 85 -45 152 -53 206 -3 17 -7 36 -9 43 -3 8 -8 44 -11 80 -3 37 -7 73 -9
80 -12 36 -3 37 354 37 192 0 353 -3 356 -7z m1040 -343 l0 -350 -334 0 c-263
0 -337 3 -348 13 -7 7 -24 52 -39 100 -14 48 -28 94 -31 102 -9 24 -11 29 -37
172 -28 146 -41 298 -27 307 5 3 191 6 413 6 l403 0 0 -350z m1038 325 c-5
-94 -14 -191 -18 -202 -2 -7 -6 -29 -9 -48 -14 -95 -60 -273 -99 -385 l-14
-40 -334 0 c-184 -1 -339 0 -344 2 -15 5 -13 682 2 691 6 4 193 7 415 7 l403
0 -2 -25z m922 -45 c-3 -38 -7 -81 -10 -95 -3 -14 -8 -41 -11 -60 -18 -121
-122 -432 -154 -464 -7 -7 -123 -11 -339 -11 l-328 0 9 30 c23 77 68 246 72
271 3 16 12 67 20 114 8 47 17 121 21 165 5 68 11 120 14 120 1 0 161 0 356 0
l355 0 -5 -70z m-3192 -835 c31 3 57 3 57 0 0 -3 80 -5 177 -5 l178 0 31 -60
c25 -50 62 -116 119 -214 14 -24 127 -185 134 -191 3 -3 31 -34 61 -70 59 -70
137 -149 215 -218 26 -23 46 -44 44 -47 -6 -6 -164 32 -254 61 -86 28 -134 47
-177 70 -15 8 -31 15 -35 15 -5 1 -26 11 -48 22 -22 12 -43 20 -47 19 -5 -1
-8 3 -8 8 0 6 -5 10 -10 10 -28 0 -263 165 -349 244 -103 97 -197 202 -269
301 -4 6 -13 18 -21 28 -21 27 -4 33 76 27 37 -3 94 -3 126 0z m1933 -2 l104
1 -31 -57 c-41 -74 -71 -126 -79 -132 -3 -3 -18 -25 -34 -50 -50 -77 -137
-182 -221 -266 -81 -82 -210 -194 -223 -194 -5 0 -8 652 -3 692 1 4 80 7 178
7 97 1 178 3 181 6 3 2 9 2 14 -1 5 -3 56 -6 114 -6z m482 2 c59 0 114 1 122
1 8 0 90 -1 183 -1 92 -1 167 -4 167 -9 0 -9 -84 -124 -124 -170 -55 -62 -217
-221 -226 -221 -4 0 -10 -4 -12 -8 -6 -14 -120 -97 -203 -148 -98 -60 -283
-152 -310 -153 -3 -1 -21 -8 -41 -16 -38 -16 -207 -63 -253 -71 -14 -3 -35 -7
-46 -10 -11 -3 22 34 73 82 119 111 332 361 332 389 0 3 5 11 10 18 27 30 87
130 131 219 46 91 63 111 82 101 4 -3 56 -4 115 -3z m-1180 -351 l0 -350 -28
18 c-77 50 -229 196 -319 307 -71 88 -171 230 -171 244 0 6 -6 17 -12 24 -12
12 -58 95 -58 104 0 2 133 3 294 3 l295 0 -1 -350z"/>
</g>
</svg>
